<?xml version="1.0" encoding="UTF-8" standalone="no"?>
<svg
   xmlns:dc="http://purl.org/dc/elements/1.1/"
   xmlns:cc="http://creativecommons.org/ns#"
   xmlns:rdf="http://www.w3.org/1999/02/22-rdf-syntax-ns#"
   xmlns:svg="http://www.w3.org/2000/svg"
   xmlns="http://www.w3.org/2000/svg"
   xmlns:sodipodi="http://sodipodi.sourceforge.net/DTD/sodipodi-0.dtd"
   xmlns:inkscape="http://www.inkscape.org/namespaces/inkscape"
   width="335.333"
   height="248.667"
   viewBox="0 0 335.333 248.667"
   overflow="visible"
   enable-background="new 0 0 335.333 248.667"
   xml:space="preserve"
   id="svg3093"
   version="1.1"
   inkscape:version="0.91 r13725"
   sodipodi:docname="Optical-rotation.svg"><metadata
     id="metadata3266"><rdf:RDF><cc:Work
         rdf:about=""><dc:format>image/svg+xml</dc:format><dc:type
           rdf:resource="http://purl.org/dc/dcmitype/StillImage" /><dc:title /></cc:Work></rdf:RDF></metadata><defs
     id="defs3264" /><sodipodi:namedview
     pagecolor="#ffffff"
     bordercolor="#666666"
     borderopacity="1"
     objecttolerance="10"
     gridtolerance="10"
     guidetolerance="10"
     inkscape:pageopacity="0"
     inkscape:pageshadow="2"
     inkscape:window-width="1920"
     inkscape:window-height="1136"
     id="namedview3262"
     showgrid="false"
     inkscape:zoom="2.71"
     inkscape:cx="167.69981"
     inkscape:cy="136.52672"
     inkscape:window-x="1920"
     inkscape:window-y="27"
     inkscape:window-maximized="1"
     inkscape:current-layer="Layer_1" /><g
     inkscape:groupmode="layer"
     id="Layer_1"><path
       fill="none"
       d="M335.333,248.667H0V0h335.333V248.667z"
       id="path3096" /><path
       opacity="0.3"
       fill="#FFFF99"
       d="M281.916,82.473l-54.506,31.47l12.858-33.466l54.506-31.47L281.916,82.473z"
       id="path3098" /><path
       opacity="0.3"
       fill="#FFFF99"
       d="M227.331,114.088l-102.533,68.125V138.64l115.005-58.09L227.331,114.088z"
       id="path3100" /><path
       fill="none"
       stroke="#000000"
       stroke-width="0.25"
       d="M124.797,181.952l102.565-67.981l54.458-31.441l12.906-33.494"
       id="path3102" /><path
       fill="none"
       stroke="#000000"
       stroke-width="0.25"
       d="M294.727,49.036l-54.458,31.441L124.797,138.64"
       id="path3104" /><g
       id="g3106"><path
         fill="none"
         stroke="#FF0000"
         stroke-width="0.6554"
         d="M233.815,97.224l-3.31,6.633l-2.461,4.967l-2.087,3.973     l-1.623,2.721l-1.104,1.296l-0.578-0.185l-0.073-1.631l0.371-2.933l0.723-3.998l0.931-4.689l0.977-4.918l0.834-4.598l0.491-3.703     l-0.02-2.281l-0.648-0.478l-1.313,1.477l-1.928,3.326l-2.41,4.823l-2.715,5.806l-2.822,6.205"
         id="path3108" /><path
         fill="none"
         stroke="#FF0000"
         stroke-width="0.6554"
         d="M215.049,109.037l-2.745,6.032l-2.507,5.364l-2.157,4.298     l-1.732,2.968l-1.264,1.461l-0.795-0.101l-0.351-1.63l0.035-3.012l0.339-4.155l0.514-4.91l0.539-5.178l0.401-4.859l0.082-3.911     l-0.385-2.382l-0.953-0.425l-1.544,1.697l-2.083,3.706l-2.491,5.32l-2.739,6.362l-2.813,6.768"
         id="path3110" /><path
         fill="none"
         stroke="#FF0000"
         stroke-width="0.6554"
         d="M192.401,122.452l-2.723,6.556l-2.507,5.822l-2.204,4.677     l-1.851,3.262l-1.473,1.674l-1.107,0.032l-0.77-1.58l-0.484-3.046l-0.273-4.269l-0.169-5.096l-0.18-5.412l-0.32-5.098     l-0.594-4.099l-0.978-2.448l-1.416-0.325l-1.868,1.998l-2.252,4.183l-2.522,5.922l-2.666,7.022l-2.679,7.422"
         id="path3112" /><path
         fill="none"
         stroke="#FF0000"
         stroke-width="0.6554"
         d="M163.366,139.65l-2.583,7.157l-2.41,6.347l-2.198,5.114     l-1.976,3.621l-1.755,1.955l-1.568,0.242l-1.419-1.439l-1.322-2.979l-1.278-4.281l-1.31-5.181l-1.405-5.554l-1.557-5.254     l-1.76-4.206l-1.98-2.432l-2.18-0.115l-2.338,2.419l-2.423,3.794l-2.429,6.66l-2.382,6.802l-2.295,7.844"
         id="path3114" /></g><g
       id="g3116"><path
         fill="none"
         stroke="#FF0000"
         stroke-width="0.6554"
         d="M288.347,65.74l-3.351,5.957l-3.152,5.453l-2.785,4.486     l-2.276,3.165l-1.677,1.605l-1.05-0.031l-0.449-1.592l0.058-2.911l0.435-3.883l0.622-4.381l0.623-4.383l0.429-3.875l0.061-2.917     l-0.45-1.591l-1.045-0.033l-1.678,1.605l-2.278,3.167l-2.784,4.49l-3.155,5.45l-3.35,5.957"
         id="path3118" /><path
         fill="none"
         stroke="#FF0000"
         stroke-width="0.6554"
         d="M261.093,81.475l-3.35,5.956l-3.153,5.453l-2.785,4.486     l-2.276,3.166l-1.677,1.605l-1.048-0.032l-0.45-1.591l0.059-2.912l0.432-3.881l0.623-4.382l0.622-4.382l0.432-3.877l0.06-2.917     l-0.45-1.591l-1.046-0.033l-1.678,1.605l-2.278,3.167l-2.784,4.49l-3.155,5.45l-3.35,5.957"
         id="path3120" /></g><path
       opacity="0.23"
       fill="none"
       stroke="#000000"
       stroke-width="0.5"
       d="M254.425,132.923    c-5.274,3.046-12.561,2.606-20.609-2.041c-16.097-9.293-29.146-31.896-29.146-50.482c0-9.293,3.262-15.824,8.537-18.869"
       id="path3122" /><path
       opacity="0.49"
       fill="#FFCCFF"
       stroke="#000000"
       stroke-width="0.5"
       d="M153.943,176.993    c0,18.587-13.049,26.121-29.146,16.827s-29.146-31.896-29.146-50.482s13.049-26.121,29.146-16.827    S153.943,158.406,153.943,176.993z"
       id="path3124" /><path
       opacity="0.5"
       fill="#FFE6FF"
       stroke="#000000"
       stroke-width="0.5"
       d="M104.19,124.473l109.018-62.94l-0.095,0.05    c5.282-3.104,12.606-2.686,20.702,1.988c16.097,9.293,29.146,31.896,29.146,50.482c0,9.293-3.263,15.824-8.537,18.869h-0.001    l-109.017,62.94c5.274-3.045,8.537-9.575,8.537-18.869c0-18.587-13.05-41.189-29.146-50.482    c-8.096-4.674-15.42-5.092-20.702-1.988L104.19,124.473z"
       id="path3126" /><path
       fill="#FFFFFF"
       stroke="#000000"
       stroke-width="0.5"
       stroke-dasharray="4 2"
       d="M43.934,206.853L308.879,53.885"
       id="path3128" /><path
       fill="none"
       stroke="#000000"
       stroke-width="0.25"
       d="M124.797,181.952l-54.507,31.47v-43.573l54.507-31.209"
       id="path3130" /><path
       opacity="0.3"
       fill="#FFFF99"
       d="M124.797,181.952l-54.507,31.47v-43.573l54.507-31.47V181.952z"
       id="path3132" /><g
       id="g3134"><path
         fill="none"
         stroke="#FF0000"
         stroke-width="0.6554"
         d="M124.797,160.166l-1.363,7.518l-1.36,6.863l-1.363,5.603     l-1.363,3.884l-1.361,1.852l-1.364-0.278l-1.363-2.311l-1.363-4.028l-1.359-5.292l-1.364-5.943l-1.363-5.943l-1.361-5.284     l-1.364-4.036l-1.364-2.31l-1.36-0.281l-1.363,1.853l-1.364,3.885l-1.361,5.609l-1.363,6.857l-1.364,7.518"
         id="path3136" /><path
         fill="none"
         stroke="#FF0000"
         stroke-width="0.6554"
         d="M97.544,175.9l-1.363,7.518l-1.361,6.863l-1.363,5.603l-1.363,3.884     l-1.361,1.852l-1.363-0.279l-1.364-2.31l-1.363-4.028l-1.36-5.292l-1.363-5.943l-1.364-5.943l-1.361-5.285l-1.363-4.036     l-1.364-2.31l-1.361-0.28l-1.363,1.853l-1.364,3.884l-1.361,5.608l-1.363,6.857l-1.364,7.518"
         id="path3138" /></g><g
       id="g3140"><g
         id="g3142"><path
           d="M37.233,210.721l-6.896,7.566l-6.208-3.584L37.233,210.721z"
           id="path3144" /><path
           d="M309.005,11.957l3.14,0.688v2.25L309.005,11.957z"
           id="path3146" /><path
           d="M321.332,21.572l-3.287-1.962l0.61-1.785L321.332,21.572z"
           id="path3148" /><path
           stroke="#FF0000"
           d="M28.995,215.478"
           id="path3150" /></g><path
         fill="none"
         stroke="#000000"
         d="M27.234,216.495L6.21,228.632"
         id="path3152" /></g><g
       id="g3154"><g
         id="g3156"><path
           d="M176.135,189.805l6.279-5.875v4.5L176.135,189.805z"
           id="path3158" /><path
           stroke="#FF0000"
           d="M182.414,186.18"
           id="path3160" /></g><path
         fill="none"
         stroke="#000000"
         stroke-width="0.5"
         stroke-linecap="square"
         d="M182.414,186.18l39.537-22.826"
         id="path3162" /></g><g
       id="g3164"><g
         id="g3166"><path
           d="M285.155,126.865l-6.278,5.875v-4.5L285.155,126.865z"
           id="path3168" /><path
           stroke="#FF0000"
           d="M278.877,130.49"
           id="path3170" /></g><path
         fill="none"
         stroke="#000000"
         stroke-width="0.5"
         stroke-linecap="square"
         d="M278.877,130.49l-40.339,23.287"
         id="path3172" /></g><path
       fill="none"
       stroke="#000000"
       stroke-width="0.25"
       stroke-linecap="square"
       d="M186.1,195.559l-30.02-17.332"
       id="path3184" /><path
       fill="none"
       stroke="#000000"
       stroke-width="0.25"
       stroke-linecap="square"
       d="M295.115,132.615l-30.02-17.332"
       id="path3186" /><g
       id="g3188"><path
         d="M236.689,150.812l-3.099,10.588c-0.169,0.574-0.253,0.951-0.253,1.13c0,0.052,0.018,0.102,0.051,0.148     s0.068,0.07,0.104,0.07c0.051,0,0.112-0.034,0.184-0.102c0.135-0.131,0.359-0.478,0.676-1.04l0.299,0.185     c-0.346,0.576-0.693,1.025-1.045,1.348s-0.682,0.484-0.987,0.484c-0.163,0-0.306-0.071-0.427-0.211     c-0.121-0.141-0.182-0.341-0.182-0.6c0-0.335,0.088-0.785,0.264-1.35l0.308-1.066c-0.935,1.306-1.786,2.21-2.554,2.711     c-0.529,0.344-1.035,0.516-1.518,0.516c-0.49,0-0.917-0.199-1.282-0.595c-0.364-0.396-0.546-0.936-0.546-1.617     c0-0.875,0.302-1.81,0.908-2.803c0.605-0.993,1.404-1.801,2.398-2.424c0.783-0.499,1.503-0.749,2.16-0.749     c0.344,0,0.64,0.065,0.889,0.195c0.248,0.13,0.493,0.346,0.735,0.647l0.833-2.886c0.09-0.321,0.164-0.577,0.222-0.769     c0.07-0.24,0.105-0.438,0.105-0.595c0-0.126-0.044-0.231-0.132-0.315c-0.125-0.101-0.286-0.152-0.482-0.152     c-0.137,0-0.363,0.021-0.679,0.062v-0.313L236.689,150.812z M233.287,157.13c0-0.377-0.121-0.681-0.361-0.911     c-0.24-0.229-0.547-0.345-0.916-0.345c-0.82,0-1.673,0.613-2.56,1.839c-0.888,1.226-1.331,2.399-1.331,3.519     c0,0.442,0.113,0.78,0.34,1.012c0.227,0.233,0.498,0.349,0.814,0.349c0.715,0,1.563-0.663,2.543-1.989     S233.287,158.12,233.287,157.13z"
         id="path3190" /></g><g
       id="g3208"><path
         fill="none"
         stroke="#000000"
         stroke-width="0.5"
         d="M66.226,245.462l-44.583-25.74v-51.479l44.583,25.741V245.462z"
         id="path3210" /><path
         fill="none"
         stroke="#000000"
         stroke-width="0.5"
         d="M43.934,181.112v51.479"
         id="path3212" /><path
         fill="none"
         stroke="#000000"
         stroke-width="0.5"
         d="M66.226,219.723l-44.583-25.741"
         id="path3214" /></g><g
       id="g3216"><path
         fill="none"
         stroke="#000000"
         stroke-width="0.5"
         d="M331.312,92.129l-44.583-25.74V14.909l44.583,25.741V92.129z"
         id="path3218" /><path
         fill="none"
         stroke="#000000"
         stroke-width="0.5"
         d="M309.02,27.779v51.479"
         id="path3220" /><path
         fill="none"
         stroke="#000000"
         stroke-width="0.5"
         d="M331.312,66.39l-44.583-25.741"
         id="path3222" /></g><g
       id="g3224"><g
         id="g3226"><path
           fill="#FF0000"
           d="M43.934,183.453l1.948,8.375l-3.897-2.25L43.934,183.453z"
           id="path3228" /><path
           stroke="#FF0000"
           d="M43.934,190.703"
           id="path3230" /></g><g
         id="g3232"><path
           fill="#FF0000"
           d="M43.934,230.253l-1.948-8.375l3.897,2.25L43.934,230.253z"
           id="path3234" /><path
           stroke="#FF0000"
           d="M43.934,223.003"
           id="path3236" /></g><path
         fill="none"
         stroke="#FF0000"
         stroke-linecap="square"
         d="M43.934,190.703v32.3"
         id="path3238" /></g><g
       id="g3240"><path
         fill="none"
         stroke="#000000"
         stroke-width="0.4"
         stroke-linecap="square"
         stroke-dasharray="4 2"
         d="M322.104,19.564     L309.02,53.52"
         id="path3242" /></g><path
       fill="none"
       stroke="#000000"
       stroke-width="0.4"
       stroke-linecap="square"
       stroke-dasharray="4 2"
       d="M309.02,27.779V9.917"
       id="path3244" /><path
       fill="none"
       stroke="#000000"
       stroke-width="0.5"
       d="M311.727,13.452c2.123,1.437,5.079,3.942,7.08,5.715"
       id="path3246" /><g
       id="g3248"><g
         id="g3250"><path
           fill="#FF0000"
           d="M315.949,35.533l-0.315,7.399l-3.662-3.653L315.949,35.533z"
           id="path3252" /><path
           stroke="#FF0000"
           d="M310.292,44.616"
           id="path3254" /></g><g
         id="g3256"><path
           fill="#FF0000"
           d="M302.089,71.508l0.317-7.399l3.66,3.653L302.089,71.508z"
           id="path3258" /></g><path
         fill="none"
         stroke="#FF0000"
         stroke-linecap="square"
         d="M313.803,41.105L309.02,53.52l-4.783,12.415"
         id="path3260" /></g><text
       xml:space="preserve"
       style="font-style:normal;font-weight:normal;font-size:18.09361649px;line-height:125%;font-family:sans-serif;letter-spacing:0px;word-spacing:0px;fill:#000000;fill-opacity:1;stroke:none;stroke-width:1px;stroke-linecap:butt;stroke-linejoin:miter;stroke-opacity:1"
       x="58.107525"
       y="180.71823"
       id="text3410"
       sodipodi:linespacing="125%"
       transform="scale(1.1085346,0.90209181)"><tspan
         sodipodi:role="line"
         id="tspan3412"
         x="58.107525"
         y="180.71823">ω</tspan></text>
<text
       xml:space="preserve"
       style="font-style:normal;font-weight:normal;font-size:21.01991653px;line-height:125%;font-family:sans-serif;letter-spacing:0px;word-spacing:0px;fill:#000000;fill-opacity:1;stroke:none;stroke-width:1px;stroke-linecap:butt;stroke-linejoin:miter;stroke-opacity:1"
       x="240.96384"
       y="19.459269"
       id="text3414"
       sodipodi:linespacing="125%"
       transform="scale(1.2085269,0.82745364)"><tspan
         sodipodi:role="line"
         id="tspan3416"
         x="240.96384"
         y="19.459269">α</tspan></text>
<text
       xml:space="preserve"
       style="font-style:normal;font-weight:normal;font-size:19.18969154px;line-height:125%;font-family:sans-serif;letter-spacing:0px;word-spacing:0px;fill:#000000;fill-opacity:1;stroke:none;stroke-width:1px;stroke-linecap:butt;stroke-linejoin:miter;stroke-opacity:1"
       x="21.693417"
       y="230.60219"
       id="text3418"
       sodipodi:linespacing="125%"
       transform="scale(1.1838352,0.84471217)"><tspan
         sodipodi:role="line"
         id="tspan3420"
         x="21.693417"
         y="230.60219">E</tspan></text>
<text
       xml:space="preserve"
       style="font-style:normal;font-weight:normal;font-size:18.05530167px;line-height:125%;font-family:sans-serif;letter-spacing:0px;word-spacing:0px;fill:#000000;fill-opacity:1;stroke:none;stroke-width:1px;stroke-linecap:butt;stroke-linejoin:miter;stroke-opacity:1"
       x="48.03054"
       y="205.30136"
       id="text3422"
       sodipodi:linespacing="125%"
       transform="scale(0.9901744,1.0099231)"><tspan
         sodipodi:role="line"
         id="tspan3424"
         x="48.03054"
         y="205.30136">B</tspan></text>
</g></svg>